# xmcd
#
# Track frame offsets: 
#        150
#        14347
#        33739
#        48855
#        68485
#        91084
#        108611
#        139383
#        155593
#
# Disc length: 2242 seconds
#
# Revision: 2
# Processed by: cddbd v1.5.2PL0 Copyright (c) Steve Scherf et al.
# Submitted via: ExactAudioCopy v1.0b4
#
DISCID=7308c009
DTITLE=Smokin' Joe Kubek - Let That Right Hand Go
DYEAR=2012
DGENRE=Blues
TTITLE0=How Many More Years
TTITLE1=It Ain't No Use
TTITLE2=King's Thang
TTITLE3=The Other Side Of Love
TTITLE4=She's Gone
TTITLE5=Tempted
TTITLE6=That's Alright - Baby, You Don't Have To Go
TTITLE7=Black Snake Crawlin' On The Floor
TTITLE8=Drivin' Sideways
EXTD=Unreleased recordings from the 80's to 2000
EXTT0=
EXTT1=
EXTT2=
EXTT3=
EXTT4=
EXTT5=
EXTT6=
EXTT7=
EXTT8=
PLAYORDER=
